<svg width="15.309999999999999" height="16.125" viewBox="0 0 15.309999999999999 17.125" xmlns="http://www.w3.org/2000/svg" style="vertical-align: text-top; ">
          <g id="svgGroup" stroke-linecap="round" stroke="#000" fill="none" style="fill:none;
            stroke:#747225;
            stroke-width:1px;"><path d="M5.21 5.12L6 5.45Q5.01 7.91 4.69 8.52L4.69 8.52L4.11 8.23Q4.75 6.77 5.21 5.12L5.21 5.12ZM1.32 5.51L2.04 5.61Q1.95 7.88 1.40 9.44L1.40 9.44L0.66 9.13Q1.17 7.82 1.32 5.51L1.32 5.51ZM3.85 2.54L3.85 7.61Q3.85 9.66 3.66 10.94L3.66 10.94Q4.79 12.12 5.87 13.62L5.87 13.62L5.17 14.36Q4.74 13.62 3.45 12L3.45 12Q2.91 14.41 1.29 16.13L1.29 16.13Q0.99 15.69 0.61 15.45L0.61 15.45Q2.94 12.97 2.94 7.61L2.94 7.61L2.94 2.54L3.85 2.54ZM9.67 5.14L9.67 6.95L10.47 6.95Q11.36 5.99 11.96 5.14L11.96 5.14L9.67 5.14ZM14.31 7.85L10.81 7.85Q10.17 8.52 9.36 9.18L9.36 9.18L13.95 9.18L13.95 10.02L9.01 10.02Q8.83 10.77 8.52 11.82L8.52 11.82L13.44 11.82Q13.42 12.12 13.39 12.25L13.39 12.25Q13.06 15.22 12.48 15.73L12.48 15.73Q12.16 16.07 11.38 16.09L11.38 16.09Q10.56 16.14 8.92 16.05L8.92 16.05Q8.89 15.57 8.61 15.16L8.61 15.16Q9.82 15.27 11.08 15.27L11.08 15.27Q11.58 15.27 11.74 15.15L11.74 15.15Q12.16 14.76 12.40 12.68L12.40 12.68L7.30 12.68Q7.57 11.96 8.04 10.19L8.04 10.19Q6.64 11.13 5.34 11.76L5.34 11.76Q5.14 11.41 4.71 10.98L4.71 10.98Q7.41 9.78 9.54 7.85L9.54 7.85L5.76 7.85L5.76 6.95L8.71 6.95L8.71 5.14L6.36 5.14L6.36 4.28L8.71 4.28L8.71 2.46L9.67 2.46L9.67 4.28L12 4.28L12 5.09Q12.69 4.10 13.14 3.18L13.14 3.18L14.01 3.50Q13.04 5.36 11.65 6.95L11.65 6.95L14.31 6.95L14.31 7.85Z" style="stroke-dasharray: 148, 150; stroke-dashoffset: 149;"><animate attributeName="stroke-dashoffset" to="0" dur="1500ms" calcMode="linear" repeatCount="1" fill="freeze" begin="0ms"></animate></path></g>
</svg>
